<svg width="93" height="45" viewBox="0 0 93 45" fill="none" xmlns="http://www.w3.org/2000/svg"><path d="M64.032 12.695a3.471 3.471 0 00-2.1.705 3.946 3.946 0 00-1.35 1.88l-9.033 26.24a3.95 3.95 0 01-1.35 1.88 3.475 3.475 0 01-2.1.705h13.024a3.471 3.471 0 002.1-.704 3.946 3.946 0 001.35-1.88l9.044-26.24a3.951 3.951 0 011.35-1.88 3.475 3.475 0 012.1-.706H64.032z" fill="#0095A5"/><path d="M77.066 12.695a3.475 3.475 0 012.1.706 3.951 3.951 0 011.35 1.88l9.033 26.24a3.946 3.946 0 001.35 1.88 3.47 3.47 0 002.1.704H79.963a3.475 3.475 0 01-2.1-.705 3.95 3.95 0 01-1.35-1.88l-9.031-26.24a3.951 3.951 0 00-1.351-1.879 3.475 3.475 0 00-2.1-.706h13.035z" fill="#00369A"/><path d="M26.376 44.105h2.93a5.026 5.026 0 01-1.575-.275 3.473 3.473 0 01-1.355.275z" fill="#56BACA"/><path d="M16.79 41.52l4.516-13.116-3.245-9.426H5.037l7.76 22.542c.172.505.438.966.78 1.356.343.39.756.7 1.212.911a3.64 3.64 0 001.216-.91c.344-.389.611-.85.784-1.357z" fill="#00369A"/><path d="M30.241 31.946s-1.673-1.812-1.673-3.25c0-.481.176-.943.49-1.283a1.61 1.61 0 011.183-.532c.444 0 .87.192 1.183.532.314.34.49.802.49 1.283-.002 1.438-1.673 3.25-1.673 3.25zm12.068-19.25H32.166a3.47 3.47 0 00-2.098.704 3.945 3.945 0 00-1.35 1.88l-5.96 17.327-3.068 8.913a3.907 3.907 0 01-1.467 1.962 3.471 3.471 0 01-1.983.623h13.03-.026a5.065 5.065 0 01-1.512-.273c-1.826-.632-3.294-2.29-3.294-4.488 0-.15 0-.294.011-.433 0-.064 0-.124.013-.186.014-.063.011-.14.018-.209a8.44 8.44 0 01.029-.239l.02-.122c.013-.086.028-.175.046-.259.358-1.728 1.437-2.743 3.276-4.1-1.16-1.572-1.987-2.872-1.987-4.377 0-2.734 2.03-4.16 4.329-4.16 2.759 0 3.99 1.306 4.251 2.836.035.214.053.431.053.649 0 1.287-.479 2.195-1.324 3.078a18.711 18.711 0 01-1.987 1.675l.965 1.288 1.986 2.647 7.63-22.164a3.949 3.949 0 011.35-1.88 3.473 3.473 0 012.1-.705l-2.908.012zm-13.366 22.58a3.496 3.496 0 00-1.097 1.286 3.83 3.83 0 00-.406 1.696c.003.932.345 1.826.952 2.486.608.66 1.43 1.034 2.29 1.04a3.163 3.163 0 002.296-1.032l-1.986-2.674-2.049-2.803z" fill="#0095A5"/><path d="M45.203 12.695a3.475 3.475 0 012.1.706 3.95 3.95 0 011.35 1.88l9.03 26.24a3.95 3.95 0 001.356 1.882 3.474 3.474 0 002.106.702H48.121a3.475 3.475 0 01-2.099-.705 3.951 3.951 0 01-1.35-1.88l-9.056-26.24a3.946 3.946 0 00-1.35-1.88 3.47 3.47 0 00-2.1-.705h13.037zM12.38 2.468s-.357-1.25-1.3-1.877A3.012 3.012 0 009.4.053a3.11 3.11 0 00-1.485.411L0 4.378l2.87 8.317h13.023L12.38 2.468z" fill="#00369A"/></svg>